<?xml version="1.0" encoding="utf-8"?>
<!-- Generator: Adobe Illustrator 19.2.1, SVG Export Plug-In . SVG Version: 6.00 Build 0)  -->
<svg version="1.1" id="Layer_1" xmlns="http://www.w3.org/2000/svg" xmlns:xlink="http://www.w3.org/1999/xlink" x="0px" y="0px"
	 viewBox="0 0 137 137" style="enable-background:new 0 0 137 137;" xml:space="preserve">
<style type="text/css">
	.st0{fill:url(#SVGID_1_);}
	.st1{fill:url(#SVGID_2_);}
</style>
<g>
	<linearGradient id="SVGID_1_" gradientUnits="userSpaceOnUse" x1="5.0045" y1="138.646" x2="124.0045" y2="3.646">
		<stop  offset="0" style="stop-color:#8B5A9F"/>
		<stop  offset="1" style="stop-color:#E4445F"/>
	</linearGradient>
	<path class="st0" d="M116.6,0h-34L55.1,28.1H20.4C9.1,28.1,0,37.2,0,48.4v35.7v28.1v4.5C0,127.9,9.1,137,20.4,137H28H56h32.5
		c11.2,0,20.4-9.1,20.4-20.4V83.1L137,54.5V20.4C137,9.1,127.9,0,116.6,0z M83.1,108.9h-2.2h-3.8L48.4,80.2c-2.3-2.3-6.2-2.3-8.5,0
		l-2.6,2.6c-2.3,2.3-2.3,6.2,0,8.5L55,108.9H28.1V83.6V56.1l9.5-9.5l18.9,18.9c3,3,8,3,11.1,0c3-3,3-8,0-11.1L48.6,35.6l7.6-7.6
		h52.7V52l-7.7-7.7c-3-3-8-3-11.1,0c-3,3-3,8,0,11.1l17,17c0.5,0.5,1.1,1,1.8,1.3v9L83.1,108.9z"/>
	<linearGradient id="SVGID_2_" gradientUnits="userSpaceOnUse" x1="19.4521" y1="151.3813" x2="138.4521" y2="16.3813">
		<stop  offset="0" style="stop-color:#8B5A9F"/>
		<stop  offset="1" style="stop-color:#E4445F"/>
	</linearGradient>
	<path class="st1" d="M87.4,72.3c-2.3-2.3-6.2-2.3-8.5,0l-2.6,2.6c-2.3,2.3-2.3,6.2,0,8.5l2.6,2.6c2.3,2.3,6.2,2.3,8.5,0l2.6-2.6
		c2.3-2.3,2.3-6.2,0-8.5L87.4,72.3z"/>
</g>
</svg>
