<svg xmlns="http://www.w3.org/2000/svg" viewBox="0 0 138 137"><defs><style>.cls-1{fill:#fff;}</style></defs><title>NGB_logo</title><g id="Layer_2" data-name="Layer 2"><g id="Layer_1-2" data-name="Layer 1"><path class="cls-1" d="M116.49,0h-33l-28,28H109V52.89l-7.73-7.73A7.5,7.5,0,1,0,90.67,55.77L109,74.11V83.5l29-29v-33A21.51,21.51,0,0,0,116.49,0Z"/><path class="cls-1" d="M76.11,109,49.27,82.17A7.5,7.5,0,0,0,38.67,92.77L54.89,109H28V55.25l9.57-9.57L59.64,67.75A7.5,7.5,0,1,0,70.25,57.14L48.18,35.07,55.25,28H21.51A21.51,21.51,0,0,0,0,49.51v66A21.51,21.51,0,0,0,21.51,137h66A21.51,21.51,0,0,0,109,115.49v-32L83.5,109Z"/><path class="cls-1" d="M89.25,86.75a7.5,7.5,0,0,0,0-10.61l-2-2A7.5,7.5,0,1,0,76.67,84.77l2,2A7.5,7.5,0,0,0,89.25,86.75Z"/></g></g></svg>